<svg xmlns="http://www.w3.org/2000/svg" xmlns:xlink="http://www.w3.org/1999/xlink" width="50" height="50" viewBox="0 0 50 50">
  <defs>
    <clipPath id="clip-path">
      <rect id="Rectangle_595" data-name="Rectangle 595" width="50" height="50" transform="translate(926 1100)" fill="#fff" stroke="#707070" stroke-width="1"/>
    </clipPath>
  </defs>
  <g id="netlify" transform="translate(-926 -1100)" clip-path="url(#clip-path)">
    <path id="Path_1" data-name="Path 1" d="M1544.223,2039.729l-12.259-2.606c-.1.1-.1.193-.193.29l11.2,16.313.676-.676,1.931-11.776a1.979,1.979,0,0,1-1.351-1.544Zm-4.537-16.023a2.652,2.652,0,0,1-2.123,1.158h-.386l-5.6,8.784,14.961-6.467v-.579Zm.483-1.544,7.239,3.089a1.94,1.94,0,0,1,.772-.386l1.158-7.432-4.537-4.537-5.116,8.012a2.842,2.842,0,0,1,.483,1.255Zm15.154,1.255-4.537-4.537-.965,6.178a1.731,1.731,0,0,1,.676.483l4.826-2.124Zm-10.907,14.672a2.38,2.38,0,0,1,1.738-1.158l1.351-8.108c-.1-.1-.193-.193-.29-.193l-15.058,6.467c0,.193.1.29.1.483Zm12.066-13.417-5.212,2.22,12.934,5.5Zm-9.363,16.6-1.544,9.846,9.17-9.17-6.564-1.351a2.5,2.5,0,0,1-1.062.676Zm-17.761-2.51a3.429,3.429,0,0,1-.965-.193l-3.089,4.73-1.158-1.158,2.9-4.537c-.1-.1-.1-.193-.193-.29l-5.213,2.22-1.255-1.255,5.695-2.51-10.328-2.124-1.448-1.448.483-.483,11.969,2.51a1.73,1.73,0,0,1,.483-.676l-5.792-8.4L1522.6,2024l6.081,8.784a1.641,1.641,0,0,1,.676-.1,2.125,2.125,0,0,1,.772.1l5.7-8.88a2.477,2.477,0,0,1-.676-1.738,1.226,1.226,0,0,1,.1-.579l-7.046-2.992,1.255-1.255,6.66,2.9a2.614,2.614,0,0,1,2.51-.483l5.212-8.2-4.344-4.344-25,25,25,25,2.413-2.413-11.2-16.409a2.906,2.906,0,0,1-1.351.386Zm19.691-9.556-1.351,8.2a2.015,2.015,0,0,1,.772,1.544L1556,2040.5l6.853-6.853-12.452-5.309A1.708,1.708,0,0,1,1549.049,2029.208Z" transform="translate(-588.385 -907.2)" fill="#25c7b7"/>
  </g>
</svg>
